<svg xmlns="http://www.w3.org/2000/svg" xmlns:xlink="http://www.w3.org/1999/xlink" contentStyleType="text/css" data-diagram-type="SEQUENCE" height="778px" preserveAspectRatio="none" style="width:909px;height:778px;background:#FFFFFF;" version="1.1" viewBox="0 0 909 778" width="909px" zoomAndPan="magnify"><defs/><g><rect fill="none" height="206.7344" style="stroke:#000000;stroke-width:1.5;" width="572.2861" x="320.043" y="199.6953"/><g><title>Operator</title><rect fill="#000000" fill-opacity="0.00000" height="616.1953" width="8" x="35.3325" y="81.2969"/><line style="stroke:#181818;stroke-width:0.5;stroke-dasharray:5.0,5.0;" x1="39" x2="39" y1="81.2969" y2="697.4922"/></g><g><title>MES API</title><rect fill="#000000" fill-opacity="0.00000" height="616.1953" width="8" x="357.248" y="81.2969"/><line style="stroke:#181818;stroke-width:0.5;stroke-dasharray:5.0,5.0;" x1="361.043" x2="361.043" y1="81.2969" y2="697.4922"/></g><g><title>Cache</title><rect fill="#000000" fill-opacity="0.00000" height="616.1953" width="8" x="647.457" y="81.2969"/><line style="stroke:#181818;stroke-width:0.5;stroke-dasharray:5.0,5.0;" x1="650.688" x2="650.688" y1="81.2969" y2="697.4922"/></g><g><title>MES Db</title><rect fill="#000000" fill-opacity="0.00000" height="616.1953" width="8" x="848.3647" y="81.2969"/><line style="stroke:#181818;stroke-width:0.5;stroke-dasharray:5.0,5.0;" x1="851.4004" x2="851.4004" y1="81.2969" y2="697.4922"/></g><g class="participant participant-head" data-participant="operator"><text fill="#000000" font-family="sans-serif" font-size="14" lengthAdjust="spacing" textLength="62.665" x="5" y="77.9951">Operator</text><ellipse cx="39.3325" cy="13.5" fill="#E2E2F0" rx="8" ry="8" style="stroke:#181818;stroke-width:0.5;"/><path d="M39.3325,21.5 L39.3325,48.5 M26.3325,29.5 L52.3325,29.5 M39.3325,48.5 L26.3325,63.5 M39.3325,48.5 L52.3325,63.5" fill="none" style="stroke:#181818;stroke-width:0.5;"/></g><g class="participant participant-tail" data-participant="operator"><text fill="#000000" font-family="sans-serif" font-size="14" lengthAdjust="spacing" textLength="62.665" x="5" y="709.4873">Operator</text><ellipse cx="39.3325" cy="721.2891" fill="#E2E2F0" rx="8" ry="8" style="stroke:#181818;stroke-width:0.5;"/><path d="M39.3325,729.2891 L39.3325,756.2891 M26.3325,737.2891 L52.3325,737.2891 M39.3325,756.2891 L26.3325,771.2891 M39.3325,756.2891 L52.3325,771.2891" fill="none" style="stroke:#181818;stroke-width:0.5;"/></g><g class="participant participant-head" data-participant="api"><text fill="#000000" font-family="sans-serif" font-size="14" lengthAdjust="spacing" textLength="56.4102" x="330.043" y="77.9951">MES API</text><ellipse cx="361.248" cy="49" fill="#E2E2F0" rx="12" ry="12" style="stroke:#181818;stroke-width:0.5;"/><polygon fill="#181818" points="357.248,37,363.248,32,361.248,37,363.248,42,357.248,37" style="stroke:#181818;stroke-width:1;"/></g><g class="participant participant-tail" data-participant="api"><text fill="#000000" font-family="sans-serif" font-size="14" lengthAdjust="spacing" textLength="56.4102" x="330.043" y="709.4873">MES API</text><ellipse cx="361.248" cy="728.7891" fill="#E2E2F0" rx="12" ry="12" style="stroke:#181818;stroke-width:0.5;"/><polygon fill="#181818" points="357.248,716.7891,363.248,711.7891,361.248,716.7891,363.248,721.7891,357.248,716.7891" style="stroke:#181818;stroke-width:1;"/></g><g class="participant participant-head" data-participant="cache"><rect fill="#E2E2F0" height="30.2969" style="stroke:#181818;stroke-width:0.5;" width="57.5381" x="624.688" y="46"/><rect fill="#E2E2F0" height="30.2969" style="stroke:#181818;stroke-width:0.5;" width="57.5381" x="620.688" y="50"/><text fill="#000000" font-family="sans-serif" font-size="14" lengthAdjust="spacing" textLength="43.5381" x="627.688" y="69.9951">Cache</text></g><g class="participant participant-tail" data-participant="cache"><rect fill="#E2E2F0" height="30.2969" style="stroke:#181818;stroke-width:0.5;" width="57.5381" x="624.688" y="696.4922"/><rect fill="#E2E2F0" height="30.2969" style="stroke:#181818;stroke-width:0.5;" width="57.5381" x="620.688" y="700.4922"/><text fill="#000000" font-family="sans-serif" font-size="14" lengthAdjust="spacing" textLength="43.5381" x="627.688" y="720.4873">Cache</text></g><g class="participant participant-head" data-participant="db"><text fill="#000000" font-family="sans-serif" font-size="14" lengthAdjust="spacing" textLength="53.9287" x="822.4004" y="77.9951">MES Db</text><path d="M834.3647,29 C834.3647,19 852.3647,19 852.3647,19 C852.3647,19 870.3647,19 870.3647,29 L870.3647,55 C870.3647,65 852.3647,65 852.3647,65 C852.3647,65 834.3647,65 834.3647,55 L834.3647,29" fill="#E2E2F0" style="stroke:#181818;stroke-width:1.5;"/><path d="M834.3647,29 C834.3647,39 852.3647,39 852.3647,39 C852.3647,39 870.3647,39 870.3647,29" fill="none" style="stroke:#181818;stroke-width:1.5;"/></g><g class="participant participant-tail" data-participant="db"><text fill="#000000" font-family="sans-serif" font-size="14" lengthAdjust="spacing" textLength="53.9287" x="822.4004" y="709.4873">MES Db</text><path d="M834.3647,722.7891 C834.3647,712.7891 852.3647,712.7891 852.3647,712.7891 C852.3647,712.7891 870.3647,712.7891 870.3647,722.7891 L870.3647,748.7891 C870.3647,758.7891 852.3647,758.7891 852.3647,758.7891 C852.3647,758.7891 834.3647,758.7891 834.3647,748.7891 L834.3647,722.7891" fill="#E2E2F0" style="stroke:#181818;stroke-width:1.5;"/><path d="M834.3647,722.7891 C834.3647,732.7891 852.3647,732.7891 852.3647,732.7891 C852.3647,732.7891 870.3647,732.7891 870.3647,722.7891" fill="none" style="stroke:#181818;stroke-width:1.5;"/></g><rect fill="#EEEEEE" height="3" style="stroke:#EEEEEE;stroke-width:1;" width="902.3291" x="0" y="111.8633"/><line style="stroke:#000000;stroke-width:1;" x1="0" x2="902.3291" y1="111.8633" y2="111.8633"/><line style="stroke:#000000;stroke-width:1;" x1="0" x2="902.3291" y1="114.8633" y2="114.8633"/><rect fill="#EEEEEE" height="23.1328" style="stroke:#000000;stroke-width:2;" width="148.7861" x="376.7715" y="101.2969"/><text fill="#000000" font-family="sans-serif" font-size="13" font-weight="bold" lengthAdjust="spacing" textLength="130.2603" x="382.7715" y="117.3638">&#1054;&#1087;&#1077;&#1088;&#1072;&#1094;&#1080;&#1103; &#1095;&#1090;&#1077;&#1085;&#1080;&#1103;</text><g class="message" data-participant-1="operator" data-participant-2="api"><polygon fill="#181818" points="349.248,151.5625,359.248,155.5625,349.248,159.5625,353.248,155.5625" style="stroke:#181818;stroke-width:1;"/><line style="stroke:#181818;stroke-width:1;" x1="39.3325" x2="355.248" y1="155.5625" y2="155.5625"/><text fill="#000000" font-family="sans-serif" font-size="13" font-weight="bold" lengthAdjust="spacing" textLength="9.0454" x="46.3325" y="150.4966">1</text><text fill="#000000" font-family="sans-serif" font-size="13" lengthAdjust="spacing" textLength="284.8701" x="59.3779" y="150.4966">&#1047;&#1072;&#1087;&#1088;&#1072;&#1096;&#1080;&#1074;&#1072;&#1077;&#1090; &#1089;&#1087;&#1080;&#1089;&#1086;&#1082; &#1079;&#1072;&#1082;&#1072;&#1079;&#1086;&#1074; &#1087;&#1086; &#1092;&#1080;&#1083;&#1100;&#1090;&#1088;&#1091;</text></g><g class="message" data-participant-1="api" data-participant-2="cache"><polygon fill="#181818" points="639.457,180.6953,649.457,184.6953,639.457,188.6953,643.457,184.6953" style="stroke:#181818;stroke-width:1;"/><line style="stroke:#181818;stroke-width:1;" x1="361.248" x2="645.457" y1="184.6953" y2="184.6953"/><text fill="#000000" font-family="sans-serif" font-size="13" font-weight="bold" lengthAdjust="spacing" textLength="9.0454" x="368.248" y="179.6294">2</text><text fill="#000000" font-family="sans-serif" font-size="13" lengthAdjust="spacing" textLength="253.1636" x="381.2935" y="179.6294">&#1055;&#1086;&#1080;&#1089;&#1082; &#1088;&#1077;&#1079;&#1091;&#1083;&#1100;&#1090;&#1072;&#1090;&#1072; &#1074; &#1082;&#1101;&#1096;&#1077; &#1087;&#1086; &#1079;&#1072;&#1087;&#1088;&#1086;&#1089;&#1091;</text></g><path d="M320.043,199.6953 L384.4858,199.6953 L384.4858,206.8281 L374.4858,216.8281 L320.043,216.8281 L320.043,199.6953" fill="#EEEEEE" style="stroke:#000000;stroke-width:1.5;"/><rect fill="none" height="206.7344" style="stroke:#000000;stroke-width:1.5;" width="572.2861" x="320.043" y="199.6953"/><text fill="#000000" font-family="sans-serif" font-size="13" font-weight="bold" lengthAdjust="spacing" textLength="19.4429" x="335.043" y="212.7622">alt</text><text fill="#000000" font-family="sans-serif" font-size="11" font-weight="bold" lengthAdjust="spacing" textLength="159.7524" x="399.4858" y="211.9058">[&#1047;&#1072;&#1087;&#1080;&#1089;&#1100; &#1074; &#1082;&#1101;&#1096;&#1077; &#1085;&#1072;&#1081;&#1076;&#1077;&#1085;&#1072;]</text><g class="message" data-participant-1="cache" data-participant-2="api"><polygon fill="#181818" points="372.248,233.9609,362.248,237.9609,372.248,241.9609,368.248,237.9609" style="stroke:#181818;stroke-width:1;"/><line style="stroke:#181818;stroke-width:1;" x1="366.248" x2="650.457" y1="237.9609" y2="237.9609"/><text fill="#000000" font-family="sans-serif" font-size="13" font-weight="bold" lengthAdjust="spacing" textLength="9.0454" x="378.248" y="232.895">3</text><text fill="#000000" font-family="sans-serif" font-size="13" lengthAdjust="spacing" textLength="195.749" x="391.2935" y="232.895">&#1042;&#1086;&#1079;&#1074;&#1088;&#1072;&#1090; &#1088;&#1077;&#1079;&#1091;&#1083;&#1100;&#1090;&#1072;&#1090;&#1072; &#1080;&#1079; &#1082;&#1101;&#1096;&#1072;</text></g><line style="stroke:#000000;stroke-width:1;stroke-dasharray:2.0,2.0;" x1="320.043" x2="892.3291" y1="246.9609" y2="246.9609"/><text fill="#000000" font-family="sans-serif" font-size="11" font-weight="bold" lengthAdjust="spacing" textLength="180.5171" x="325.043" y="257.1714">[&#1047;&#1072;&#1087;&#1080;&#1089;&#1100; &#1074; &#1082;&#1101;&#1096;&#1077; &#1086;&#1090;&#1089;&#1091;&#1090;&#1089;&#1090;&#1074;&#1091;&#1077;&#1090;]</text><g class="message" data-participant-1="cache" data-participant-2="api"><polygon fill="#181818" points="372.248,277.8984,362.248,281.8984,372.248,285.8984,368.248,281.8984" style="stroke:#181818;stroke-width:1;"/><line style="stroke:#181818;stroke-width:1;" x1="366.248" x2="650.457" y1="281.8984" y2="281.8984"/><text fill="#000000" font-family="sans-serif" font-size="13" font-weight="bold" lengthAdjust="spacing" textLength="9.0454" x="378.248" y="276.8325">4</text><text fill="#000000" font-family="sans-serif" font-size="13" lengthAdjust="spacing" textLength="81.8149" x="391.2935" y="276.8325">&#1074;&#1086;&#1079;&#1074;&#1088;&#1072;&#1090; null</text></g><g class="message" data-participant-1="api" data-participant-2="db"><polygon fill="#181818" points="840.3647,307.0313,850.3647,311.0313,840.3647,315.0313,844.3647,311.0313" style="stroke:#181818;stroke-width:1;"/><line style="stroke:#181818;stroke-width:1;" x1="361.248" x2="846.3647" y1="311.0313" y2="311.0313"/><text fill="#000000" font-family="sans-serif" font-size="13" font-weight="bold" lengthAdjust="spacing" textLength="9.0454" x="368.248" y="305.9653">5</text><text fill="#000000" font-family="sans-serif" font-size="13" lengthAdjust="spacing" textLength="81.9229" x="381.2935" y="305.9653">&#1079;&#1072;&#1087;&#1088;&#1086;&#1089; &#1082; &#1041;&#1044;</text></g><g class="message" data-participant-1="db" data-participant-2="api"><polygon fill="#181818" points="372.248,336.1641,362.248,340.1641,372.248,344.1641,368.248,340.1641" style="stroke:#181818;stroke-width:1;"/><line style="stroke:#181818;stroke-width:1;" x1="366.248" x2="851.3647" y1="340.1641" y2="340.1641"/><text fill="#000000" font-family="sans-serif" font-size="13" font-weight="bold" lengthAdjust="spacing" textLength="9.0454" x="378.248" y="335.0981">6</text><text fill="#000000" font-family="sans-serif" font-size="13" lengthAdjust="spacing" textLength="205.2324" x="391.2935" y="335.0981">&#1074;&#1086;&#1079;&#1074;&#1088;&#1072;&#1090; &#1089;&#1087;&#1080;&#1089;&#1082;&#1072; &#1079;&#1072;&#1082;&#1072;&#1079;&#1086;&#1074; &#1080;&#1079; &#1041;&#1044;</text></g><g class="message" data-participant-1="api" data-participant-2="cache"><polygon fill="#181818" points="639.457,365.2969,649.457,369.2969,639.457,373.2969,643.457,369.2969" style="stroke:#181818;stroke-width:1;"/><line style="stroke:#181818;stroke-width:1;" x1="361.248" x2="645.457" y1="369.2969" y2="369.2969"/><text fill="#000000" font-family="sans-serif" font-size="13" font-weight="bold" lengthAdjust="spacing" textLength="9.0454" x="368.248" y="364.231">7</text><text fill="#000000" font-family="sans-serif" font-size="13" lengthAdjust="spacing" textLength="240.6968" x="381.2935" y="364.231">&#1086;&#1073;&#1085;&#1086;&#1074;&#1083;&#1077;&#1085;&#1080;&#1077; &#1089;&#1087;&#1080;&#1089;&#1082;&#1072; &#1079;&#1072;&#1082;&#1072;&#1079;&#1086;&#1074; &#1074; &#1082;&#1101;&#1096;&#1077;</text></g><g class="message" data-participant-1="cache" data-participant-2="api"><polygon fill="#181818" points="372.248,394.4297,362.248,398.4297,372.248,402.4297,368.248,398.4297" style="stroke:#181818;stroke-width:1;"/><line style="stroke:#181818;stroke-width:1;" x1="366.248" x2="650.457" y1="398.4297" y2="398.4297"/><text fill="#000000" font-family="sans-serif" font-size="13" font-weight="bold" lengthAdjust="spacing" textLength="9.0454" x="378.248" y="393.3638">8</text><text fill="#000000" font-family="sans-serif" font-size="13" lengthAdjust="spacing" textLength="95.9067" x="391.2935" y="393.3638">&#1082;&#1101;&#1096; &#1086;&#1073;&#1085;&#1086;&#1074;&#1083;&#1077;&#1085;</text></g><g class="message" data-participant-1="api" data-participant-2="operator"><polygon fill="#181818" points="50.3325,430.5625,40.3325,434.5625,50.3325,438.5625,46.3325,434.5625" style="stroke:#181818;stroke-width:1;"/><line style="stroke:#181818;stroke-width:1;" x1="44.3325" x2="360.248" y1="434.5625" y2="434.5625"/><text fill="#000000" font-family="sans-serif" font-size="13" font-weight="bold" lengthAdjust="spacing" textLength="9.0454" x="56.3325" y="429.4966">9</text><text fill="#000000" font-family="sans-serif" font-size="13" lengthAdjust="spacing" textLength="163.7886" x="69.3779" y="429.4966">&#1042;&#1086;&#1079;&#1074;&#1088;&#1072;&#1090; &#1089;&#1087;&#1080;&#1089;&#1082;&#1072; &#1079;&#1072;&#1082;&#1072;&#1079;&#1086;&#1074;</text></g><rect fill="#EEEEEE" height="3" style="stroke:#EEEEEE;stroke-width:1;" width="902.3291" x="0" y="463.1289"/><line style="stroke:#000000;stroke-width:1;" x1="0" x2="902.3291" y1="463.1289" y2="463.1289"/><line style="stroke:#000000;stroke-width:1;" x1="0" x2="902.3291" y1="466.1289" y2="466.1289"/><rect fill="#EEEEEE" height="23.1328" style="stroke:#000000;stroke-width:2;" width="148.3037" x="377.0127" y="452.5625"/><text fill="#000000" font-family="sans-serif" font-size="13" font-weight="bold" lengthAdjust="spacing" textLength="129.7778" x="383.0127" y="468.6294">&#1054;&#1087;&#1077;&#1088;&#1072;&#1094;&#1080;&#1103; &#1079;&#1072;&#1087;&#1080;&#1089;&#1080;</text><g class="message" data-participant-1="operator" data-participant-2="api"><polygon fill="#181818" points="349.248,502.8281,359.248,506.8281,349.248,510.8281,353.248,506.8281" style="stroke:#181818;stroke-width:1;"/><line style="stroke:#181818;stroke-width:1;" x1="39.3325" x2="355.248" y1="506.8281" y2="506.8281"/><text fill="#000000" font-family="sans-serif" font-size="13" font-weight="bold" lengthAdjust="spacing" textLength="9.0454" x="46.3325" y="501.7622">1</text><text fill="#000000" font-family="sans-serif" font-size="13" lengthAdjust="spacing" textLength="163.998" x="59.3779" y="501.7622">&#1080;&#1079;&#1084;&#1077;&#1085;&#1103;&#1077;&#1090; &#1089;&#1090;&#1072;&#1090;&#1091;&#1089; &#1079;&#1072;&#1082;&#1072;&#1079;&#1072;</text></g><g class="message" data-participant-1="api" data-participant-2="db"><polygon fill="#181818" points="840.3647,531.9609,850.3647,535.9609,840.3647,539.9609,844.3647,535.9609" style="stroke:#181818;stroke-width:1;"/><line style="stroke:#181818;stroke-width:1;" x1="361.248" x2="846.3647" y1="535.9609" y2="535.9609"/><text fill="#000000" font-family="sans-serif" font-size="13" font-weight="bold" lengthAdjust="spacing" textLength="9.0454" x="368.248" y="530.895">2</text><text fill="#000000" font-family="sans-serif" font-size="13" lengthAdjust="spacing" textLength="160.8306" x="381.2935" y="530.895">&#1079;&#1072;&#1087;&#1080;&#1089;&#1100; &#1080;&#1079;&#1084;&#1077;&#1085;&#1077;&#1085;&#1080;&#1081; &#1074; &#1041;&#1044;</text></g><g class="message" data-participant-1="db" data-participant-2="api"><polygon fill="#181818" points="372.248,561.0938,362.248,565.0938,372.248,569.0938,368.248,565.0938" style="stroke:#181818;stroke-width:1;"/><line style="stroke:#181818;stroke-width:1;" x1="366.248" x2="851.3647" y1="565.0938" y2="565.0938"/><text fill="#000000" font-family="sans-serif" font-size="13" font-weight="bold" lengthAdjust="spacing" textLength="9.0454" x="378.248" y="560.0278">3</text><text fill="#000000" font-family="sans-serif" font-size="13" lengthAdjust="spacing" textLength="168.5303" x="391.2935" y="560.0278">&#1079;&#1072;&#1074;&#1077;&#1088;&#1096;&#1077;&#1085;&#1080;&#1077; &#1090;&#1088;&#1072;&#1085;&#1079;&#1072;&#1082;&#1094;&#1080;&#1080;</text></g><g class="message" data-participant-1="api" data-participant-2="operator"><polygon fill="#181818" points="50.3325,590.2266,40.3325,594.2266,50.3325,598.2266,46.3325,594.2266" style="stroke:#181818;stroke-width:1;"/><line style="stroke:#181818;stroke-width:1;" x1="44.3325" x2="360.248" y1="594.2266" y2="594.2266"/><text fill="#000000" font-family="sans-serif" font-size="13" font-weight="bold" lengthAdjust="spacing" textLength="9.0454" x="56.3325" y="589.1606">4</text><text fill="#000000" font-family="sans-serif" font-size="13" lengthAdjust="spacing" textLength="246.3335" x="69.3779" y="589.1606">&#1087;&#1086;&#1076;&#1090;&#1074;&#1077;&#1088;&#1078;&#1076;&#1077;&#1085;&#1080;&#1077; &#1080;&#1079;&#1084;&#1077;&#1085;&#1077;&#1085;&#1080;&#1103; &#1089;&#1090;&#1072;&#1090;&#1091;&#1089;&#1072;</text></g><rect fill="#EEEEEE" height="3" style="stroke:#EEEEEE;stroke-width:1;" width="902.3291" x="0" y="622.793"/><line style="stroke:#000000;stroke-width:1;" x1="0" x2="902.3291" y1="622.793" y2="622.793"/><line style="stroke:#000000;stroke-width:1;" x1="0" x2="902.3291" y1="625.793" y2="625.793"/><rect fill="#EEEEEE" height="23.1328" style="stroke:#000000;stroke-width:2;" width="120.3804" x="390.9744" y="612.2266"/><text fill="#000000" font-family="sans-serif" font-size="13" font-weight="bold" lengthAdjust="spacing" textLength="101.8545" x="396.9744" y="628.2935">&#1048;&#1085;&#1074;&#1072;&#1083;&#1080;&#1076;&#1072;&#1094;&#1080;&#1103;</text><g class="message" data-participant-1="cache" data-participant-2="cache"><line style="stroke:#181818;stroke-width:1;" x1="651.457" x2="693.457" y1="666.4922" y2="666.4922"/><line style="stroke:#181818;stroke-width:1;" x1="693.457" x2="693.457" y1="666.4922" y2="679.4922"/><line style="stroke:#181818;stroke-width:1;" x1="652.457" x2="693.457" y1="679.4922" y2="679.4922"/><polygon fill="#181818" points="662.457,675.4922,652.457,679.4922,662.457,683.4922,658.457,679.4922" style="stroke:#181818;stroke-width:1;"/><text fill="#000000" font-family="sans-serif" font-size="13" font-weight="bold" lengthAdjust="spacing" textLength="9.0454" x="658.457" y="661.4263">1</text><text fill="#000000" font-family="sans-serif" font-size="13" lengthAdjust="spacing" textLength="173.8623" x="671.5024" y="661.4263">&#1080;&#1085;&#1074;&#1072;&#1083;&#1080;&#1076;&#1072;&#1094;&#1080;&#1103; &#1087;&#1086; &#1090;&#1072;&#1081;&#1084;&#1077;&#1088;&#1091;</text></g><!--SRC=[XLFBJjjG4DtVhnYnPz5jf5H2j0iM2AH-mRLZYKZ6Hecp9mwYNL15L4Zjglq5rugnSS3ymimVCJD-r8I4BcpvUcREcNDchdMZS08d5zx4oeUTGjXy6pSCeademzxnvozmS7gq9r5xCUQ0xtjkD0w3AHnQzyoJW2iVPcGZwzYfLnTzShHcv1Wp70B-ncVCw18JkiQ2ba1VASOCd_Gm71exYy9WTkvu4_XWsZPW_wEGmW3m9oRuhFNViC2KJnd5G7E6BVXTOGcOyz-IdvoFAN2a0hhYx3NTK4oNj302nfZQhw3-uKmfBu6XCynfKISp3JyWA2LzPygiXbCAQQEYkS3v4JIj2GpTlAvuui03hbHcOW0QtbeKi_zWzXnJLHNlwA30l4LCZEUpkxlvAbR9RUaxPjo5U2IycyJfA-9WvlkQrRWpSiIQdb8GSs_nJfCukWEd6qOfZMyCGtMq6FqnC4o5VzaXJiDrlH8ivbsmVwAtgTFG6rJZ1QDs_kr-lPt1RjRjQrpRf2N5_zPue2xWetH3osP_wqdpqEPzliHqinZqE6JW7KHZrOFQ8Sxs9oCbgNGg9hMMnj8u7vH7162nnH7USrp9_gZG-sP_1M2JMwvnJm1thHxzufXSq3NdhpgdDitfXjPkGR6rhBx5iTwaHnMqU040]--></g></svg>